<?xml version="1.0" encoding="UTF-8" standalone="no"?>
<svg height='300px' width='300px'  fill="#000000" xmlns="http://www.w3.org/2000/svg" xmlns:xlink="http://www.w3.org/1999/xlink" version="1.1" x="0px" y="0px" viewBox="0 0 100 100" enable-background="new 0 0 100 100" xml:space="preserve"><path d="M51.4,86.6l-5.9-8l-11.8,6.7l-13-9.7l-0.6-12.7c-1-1-2.5-2.6-3.6-4.1c-0.4-0.5-1.4-1.9-2.9-10.6l-0.4-2.4l8.5-6.3l-2.2-14.7  l4.2-0.4c2.8-0.3,7.4-0.9,8.9-1.5c3.8-1.6,9.2-2.4,12.3-2.5l14.6-6.7l13.3,12.4v4.6l14.2,9l-2.5,3.4c-0.2,0.2-3.8,5.3-7.3,9.3  l5.4,15l-1.5,1.8c-4.5,5.2-10.3,11.7-12.1,12.8c-0.5,0.4-2.1,1.4-15.2,4.1L51.4,86.6z M44.8,64.1l10,13.6c4.3-0.9,8.7-2,10-2.5  c1.2-1,5.2-5.4,8.9-9.6l-2.7-7.5c-3.3,2.6-6.5,4.8-6.7,4.9l-4.5-6.6c2.3-1.6,8.8-6.3,11.5-9.3c1.5-1.7,3.1-3.8,4.4-5.4L65,35.2  c-0.1,0-0.3,0.1-0.4,0.1c-2.9,1-9.4,2.5-9.7,2.6l-2.9,0.7l-1.5-2.5c-2-3.3-4.4-6.6-5.7-7.7c-2.5,0.1-6.7,0.8-9.3,1.9  c-1.8,0.7-4.6,1.2-7,1.6l1.4,9.3l7.6,6.2L50.2,46l0.8,8l-15.9,1.7l-8.8-7.2l-4.3,1.8c0.4,1.9,0.8,3.4,1,4.1c1.2,1.5,3,3.3,3.6,3.9  l1.2,1.1l0.6,12.1l5.8,4.3l6.4-3.6l-2.4-3.2L44.8,64.1z M53,25.4c0.9,1.1,1.8,2.4,2.8,4c2.2-0.6,4.8-1.3,6.2-1.7  c0.2-0.1,0.4-0.1,0.7-0.2L58,23.1L53,25.4z"></path></svg>