<?xml version="1.0" encoding="UTF-8" standalone="no"?>
<svg
   xmlns:dc="http://purl.org/dc/elements/1.1/"
   xmlns:cc="http://creativecommons.org/ns#"
   xmlns:rdf="http://www.w3.org/1999/02/22-rdf-syntax-ns#"
   xmlns:svg="http://www.w3.org/2000/svg"
   xmlns="http://www.w3.org/2000/svg"
   xmlns:sodipodi="http://sodipodi.sourceforge.net/DTD/sodipodi-0.dtd"
   xmlns:inkscape="http://www.inkscape.org/namespaces/inkscape"
   viewBox="0 0 291.32784 106.67882"
   height="28.225439mm"
   width="77.08049mm"
   xml:space="preserve"
   id="svg2"
   version="1.1"
   sodipodi:docname="logo.svg"
   inkscape:version="0.92.3 (2405546, 2018-03-11)"><sodipodi:namedview
     pagecolor="#ffffff"
     bordercolor="#666666"
     borderopacity="1"
     objecttolerance="10"
     gridtolerance="10"
     guidetolerance="10"
     inkscape:pageopacity="0"
     inkscape:pageshadow="2"
     inkscape:window-width="1314"
     inkscape:window-height="893"
     id="namedview44"
     showgrid="false"
     fit-margin-top="1"
     fit-margin-left="1"
     fit-margin-right="1"
     fit-margin-bottom="1"
     units="mm"
     inkscape:zoom="1.784141"
     inkscape:cx="127.81561"
     inkscape:cy="20.50332"
     inkscape:window-x="0"
     inkscape:window-y="27"
     inkscape:window-maximized="0"
     inkscape:current-layer="svg2" /><metadata
     id="metadata8"><rdf:RDF><cc:Work
         rdf:about=""><dc:format>image/svg+xml</dc:format><dc:type
           rdf:resource="http://purl.org/dc/dcmitype/StillImage" /><dc:title></dc:title></cc:Work></rdf:RDF></metadata><defs
     id="defs6"><clipPath
       id="clipPath18"
       clipPathUnits="userSpaceOnUse"><path
         id="path16"
         d="M 0,204.333 H 454 V 0 H 0 Z"
         inkscape:connector-curvature="0" /></clipPath></defs><g
     transform="matrix(1.3333333,0,0,-1.3333333,-150.29994,187.29265)"
     id="g10"><g
       transform="translate(170.1441,120.3548)"
       id="g20"><path
         id="path22"
         style="fill:#000000;fill-opacity:1;fill-rule:nonzero;stroke:none"
         d="m 0,0 h 2.836 l 5.228,-7.622 c 0.709,-1.093 1.211,-1.831 1.684,-2.629 h 0.06 c 0.413,0.768 0.945,1.654 1.625,2.747 L 16.248,0 h 2.865 v -19.468 h -3.101 v 11.491 c 0,0.857 0,1.951 0.029,2.807 h -0.029 c -0.325,-0.65 -1.005,-1.684 -1.36,-2.245 l -4.165,-6.528 H 9.01 l -4.578,6.675 c -0.414,0.591 -0.946,1.33 -1.33,2.069 H 3.043 c 0.059,-0.827 0.059,-1.95 0.059,-2.718 V -19.468 H 0 Z"
         inkscape:connector-curvature="0" /></g><g
       transform="translate(194.5484,100.7689)"
       id="g24"><path
         id="path26"
         style="fill:#000000;fill-opacity:1;fill-rule:nonzero;stroke:none"
         d="M 0,0 V 2.659 C 0.384,2.6 0.768,2.541 1.122,2.541 c 1.714,0 2.423,1.033 3.516,3.19 L -2.305,19.586 H 1.152 L 6.203,8.921 h 0.06 l 4.608,10.665 h 3.397 L 7.444,4.815 C 5.79,1.211 3.958,-0.118 1.418,-0.118 1.093,-0.118 0.473,-0.089 0,0"
         inkscape:connector-curvature="0" /></g><path
       d="m 226.5142,102.0687 c -2.038,-1.123 -4.048,-1.477 -5.938,-1.477 -6.174,0 -9.66,4.106 -9.66,9.808 0,5.642 4.018,10.132 10.103,10.132 2.098,0 3.87,-0.443 4.992,-0.975 v -2.895 c -1.447,0.768 -3.013,1.241 -4.933,1.241 -4.372,0 -6.853,-3.368 -6.853,-7.415 0,-4.283 2.569,-7.267 6.706,-7.267 1.891,0 3.367,0.532 4.727,1.3 z"
       style="fill:#000000;fill-opacity:1;fill-rule:nonzero;stroke:none"
       id="path30"
       inkscape:connector-curvature="0" /><path
       d="m 245.1275,110.5472 c 0,4.401 -2.423,7.355 -6.41,7.355 -3.841,0 -6.411,-2.806 -6.411,-7.355 0,-4.55 2.57,-7.326 6.411,-7.326 3.84,0 6.41,2.776 6.41,7.326 m -16.13,0 c 0,5.908 4.048,9.984 9.72,9.984 5.701,0 9.689,-4.135 9.689,-9.984 0,-6.026 -4.135,-9.956 -9.689,-9.956 -5.643,0 -9.72,3.959 -9.72,9.956"
       style="fill:#000000;fill-opacity:1;fill-rule:nonzero;stroke:none"
       id="path34"
       inkscape:connector-curvature="0" /><g
       transform="translate(256.7994,110.2811)"
       id="g36"><path
         id="path38"
         style="fill:#000000;fill-opacity:1;fill-rule:nonzero;stroke:none"
         d="M 0,0 C 1.063,0 1.861,0.177 2.452,0.502 3.634,1.063 4.195,2.215 4.195,3.781 4.195,5.169 3.663,6.322 2.57,6.972 1.95,7.326 1.123,7.533 -0.029,7.533 H -1.182 V 0 Z M -4.283,10.074 H 0.06 c 1.861,0 3.219,-0.266 4.341,-0.857 C 6.322,8.212 7.444,6.351 7.444,3.781 7.444,1.506 6.47,-0.739 3.87,-1.832 2.836,-2.275 1.536,-2.541 -0.206,-2.541 h -0.976 v -6.853 h -3.101 z"
         inkscape:connector-curvature="0" /></g><g
       transform="translate(268.1168,120.3548)"
       id="g40"><path
         id="path42"
         style="fill:#000000;fill-opacity:1;fill-rule:nonzero;stroke:none"
         d="m 0,0 h 3.102 v -8.213 h 9.749 V 0 h 3.101 v -19.468 h -3.101 v 8.626 H 3.102 v -8.626 H 0 Z"
         inkscape:connector-curvature="0" /></g><path
       id="path44"
       style="fill:#000000;fill-opacity:1;fill-rule:nonzero;stroke:none"
       d="m 303.45,120.355 h 3.103 v -19.468 h -3.103 z m -9.896,-16.898 c 3.042,0 4.46,1.122 4.46,3.456 0,1.389 -0.531,2.305 -1.507,2.836 -0.767,0.444 -1.831,0.591 -3.249,0.591 h -1.152 v -6.883 z m -4.55,16.898 h 3.102 v -7.445 h 1.093 c 2.127,0 3.811,-0.266 5.111,-0.945 1.831,-0.945 2.865,-2.599 2.865,-4.992 0,-3.545 -2.097,-6.086 -7.71,-6.086 h -4.461 z"
       inkscape:connector-curvature="0" /><g
       transform="translate(314.9742,125.9969)"
       id="g46"><path
         id="path48"
         style="fill:#000000;fill-opacity:1;fill-rule:nonzero;stroke:none"
         d="m 0,0 h 2.6 c 0,-1.33 0.65,-2.422 2.452,-2.422 1.772,0 2.423,1.092 2.423,2.422 h 2.629 C 10.162,-2.748 8.331,-4.727 5.052,-4.727 1.714,-4.727 -0.088,-2.748 0,0 m -3.456,-5.642 h 3.102 v -11.049 c 0,-1.211 -0.03,-2.304 -0.059,-3.338 h 0.059 c 0.62,0.946 1.388,2.009 2.393,3.309 l 8.33,11.078 h 3.043 V -25.11 h -3.101 v 11.61 c 0,1.27 0,2.274 0.058,3.131 H 10.311 C 9.66,-11.285 8.922,-12.348 7.947,-13.589 L -0.709,-25.11 h -2.747 z"
         inkscape:connector-curvature="0" /></g><g
       transform="translate(170.1441,91.9173)"
       id="g50"><path
         id="path52"
         style="fill:#000000;fill-opacity:1;fill-rule:nonzero;stroke:none"
         d="m 0,0 h 3.102 v -8.39 h 1.832 c 2.894,0 3.13,3.87 4.461,6.529 0.678,1.299 1.712,2.038 3.278,2.038 0.503,0 1.181,-0.089 1.654,-0.266 v -2.747 c -0.442,0.148 -0.767,0.207 -1.093,0.207 -0.709,0 -1.123,-0.325 -1.418,-0.857 C 10.9,-5.111 10.428,-8.36 8.479,-9.483 v -0.059 c 0.885,-0.325 1.594,-1.182 2.363,-2.659 l 3.84,-7.267 h -3.575 l -3.13,6.292 c -0.829,1.714 -1.478,2.245 -2.069,2.245 H 3.102 v -8.537 H 0 Z"
         inkscape:connector-curvature="0" /></g><g
       transform="translate(192.3609,81.8436)"
       id="g54"><path
         id="path56"
         style="fill:#000000;fill-opacity:1;fill-rule:nonzero;stroke:none"
         d="M 0,0 C 1.063,0 1.861,0.177 2.452,0.502 3.634,1.063 4.195,2.215 4.195,3.781 4.195,5.169 3.663,6.322 2.57,6.972 1.95,7.326 1.123,7.533 -0.029,7.533 H -1.182 V 0 Z M -4.283,10.074 H 0.06 c 1.86,0 3.219,-0.266 4.342,-0.857 C 6.322,8.212 7.444,6.351 7.444,3.781 7.444,1.506 6.47,-0.739 3.87,-1.832 2.836,-2.275 1.536,-2.541 -0.207,-2.541 h -0.975 v -6.853 h -3.101 z"
         inkscape:connector-curvature="0" /></g><g
       transform="translate(203.6783,91.9173)"
       id="g58"><path
         id="path60"
         style="fill:#000000;fill-opacity:1;fill-rule:nonzero;stroke:none"
         d="M 0,0 H 10.31 L 9.424,-2.629 H 3.102 v -5.613 h 6.292 v -2.629 H 3.102 v -5.968 h 7.296 v -2.629 H 0 Z"
         inkscape:connector-curvature="0" /></g><g
       transform="translate(218.3033,91.9173)"
       id="g62"><path
         id="path64"
         style="fill:#000000;fill-opacity:1;fill-rule:nonzero;stroke:none"
         d="m 0,0 h 2.836 l 5.228,-7.622 c 0.709,-1.093 1.212,-1.831 1.685,-2.629 h 0.059 c 0.414,0.768 0.945,1.654 1.625,2.747 L 16.247,0 h 2.866 v -19.468 h -3.102 v 11.491 c 0,0.857 0,1.951 0.03,2.807 h -0.03 c -0.324,-0.65 -1.004,-1.684 -1.359,-2.245 l -4.165,-6.528 H 9.01 l -4.579,6.675 c -0.413,0.591 -0.946,1.33 -1.329,2.069 H 3.043 c 0.059,-0.827 0.059,-1.95 0.059,-2.718 V -19.468 H 0 Z"
         inkscape:connector-curvature="0" /></g><g
       transform="translate(240.3443,72.3905)"
       id="g66"><path
         id="path68"
         style="fill:#000000;fill-opacity:1;fill-rule:nonzero;stroke:none"
         d="m 0,0 v 2.866 c 0.295,-0.06 0.502,-0.06 0.62,-0.06 0.827,0 1.596,0.414 2.186,1.36 1.773,2.806 2.955,10.014 3.427,15.361 H 16.04 V 0.059 H 12.909 V 16.986 H 8.833 C 8.39,11.935 7.09,5.111 5.14,2.127 4.076,0.532 2.718,-0.088 0.945,-0.088 0.768,-0.088 0.295,-0.088 0,0"
         inkscape:connector-curvature="0" /></g><g
       transform="translate(266.313,75.0199)"
       id="g70"><path
         id="path72"
         style="fill:#000000;fill-opacity:1;fill-rule:nonzero;stroke:none"
         d="m 0,0 c 3.043,0 4.461,1.122 4.461,3.456 0,1.3 -0.473,2.274 -1.389,2.777 -0.798,0.502 -1.92,0.65 -3.397,0.65 H -1.891 V 0 Z m -4.992,16.897 h 3.101 V 9.453 h 1.478 c 2.098,0 3.81,-0.266 5.14,-0.916 C 6.588,7.592 7.622,5.908 7.622,3.515 7.622,-0.03 5.524,-2.57 -0.089,-2.57 h -4.903 z"
         inkscape:connector-curvature="0" /></g><g
       transform="translate(119.8076,73.91)"
       id="g74"><path
         id="path76"
         style="fill:#000000;fill-opacity:1;fill-rule:nonzero;stroke:none"
         d="m 0,0 h 27.696 v 30.712 l -1.773,0.436 -5.978,1.336 H 0 Z M 29.312,-1.615 H -1.615 V 34.1 l 21.825,-0.02 6.082,-1.359 3.02,-0.743 z"
         inkscape:connector-curvature="0" /></g><path
       id="path78"
       style="fill:#000000;fill-opacity:1;fill-rule:nonzero;stroke:none"
       d="m 127.186,76.607 h -1.615 v 27.185 h 1.615 z"
       inkscape:connector-curvature="0" /><path
       id="path80"
       style="fill:#000000;fill-opacity:1;fill-rule:nonzero;stroke:none"
       d="m 134.463,76.607 h -1.615 v 27.185 h 1.615 z"
       inkscape:connector-curvature="0" /><path
       id="path82"
       style="fill:#000000;fill-opacity:1;fill-rule:nonzero;stroke:none"
       d="m 141.741,76.607 h -1.615 v 27.185 h 1.615 z"
       inkscape:connector-curvature="0" /><g
       transform="translate(117.5146,113.6673)"
       id="g84"><path
         id="path86"
         style="fill:#000000;fill-opacity:1;fill-rule:nonzero;stroke:none"
         d="m 0,0 33.997,-8.368 0.242,0.986 c 0.28,1.133 0.1,2.307 -0.504,3.305 -0.603,0.998 -1.56,1.702 -2.694,1.981 L 5.528,4.184 C 5.185,4.269 4.832,4.312 4.48,4.312 2.467,4.312 0.725,2.944 0.243,0.987 Z m 35.179,-10.322 -37.134,9.139 0.63,2.556 c 0.659,2.681 3.047,4.554 5.805,4.554 0.482,0 0.964,-0.059 1.435,-0.175 l 25.513,-6.28 c 1.551,-0.382 2.862,-1.345 3.689,-2.713 0.827,-1.367 1.072,-2.975 0.691,-4.527 z"
         inkscape:connector-curvature="0" /></g><g
       transform="translate(141.6484,138.1309)"
       id="g88"><path
         id="path90"
         style="fill:#c91406;fill-opacity:1;fill-rule:nonzero;stroke:none"
         d="m 0,0 0.901,-4.086 3.877,-1.574 -3.607,-2.119 -0.299,-4.174 -3.131,2.776 -4.061,-1.005 1.672,3.835 -2.211,3.552 4.164,-0.406 z"
         inkscape:connector-curvature="0" /></g><g
       transform="translate(141.041,115.3617)"
       id="g92"><path
         id="path94"
         style="fill:#000000;fill-opacity:1;fill-rule:nonzero;stroke:none"
         d="M 0,0 1.874,-0.461 2.037,6.888 -8.031,9.367 -11.298,2.781 -9.502,2.339 -6.962,7.54 0.163,5.785 Z m 3.444,-2.511 -5.094,1.254 0.163,5.785 -4.596,1.132 -2.54,-5.201 -5.017,1.235 4.738,9.551 12.584,-3.098 z"
         inkscape:connector-curvature="0" /></g></g></svg>